<svg xmlns="http://www.w3.org/2000/svg" viewBox="0 0 512 512">
  <defs>
    <linearGradient id="bgGrad" x1="0%" y1="0%" x2="100%" y2="100%">
      <stop offset="0%" style="stop-color:#1565C0"/>
      <stop offset="100%" style="stop-color:#0D47A1"/>
    </linearGradient>
  </defs>
  <!-- Background -->
  <rect width="512" height="512" rx="64" fill="url(#bgGrad)"/>
  <!-- Cow silhouette simplified -->
  <g fill="#FFFFFF" transform="translate(80, 140)">
    <!-- Body -->
    <ellipse cx="176" cy="140" rx="140" ry="80"/>
    <!-- Head -->
    <circle cx="60" cy="100" r="50"/>
    <!-- Ears -->
    <ellipse cx="30" cy="60" rx="20" ry="12" transform="rotate(-30 30 60)"/>
    <ellipse cx="90" cy="60" rx="20" ry="12" transform="rotate(30 90 60)"/>
    <!-- Legs -->
    <rect x="80" y="200" width="20" height="60" rx="8"/>
    <rect x="130" y="200" width="20" height="60" rx="8"/>
    <rect x="220" y="200" width="20" height="60" rx="8"/>
    <rect x="270" y="200" width="20" height="60" rx="8"/>
  </g>
  <!-- Chart bars representing optimization -->
  <g fill="#90CAF9" opacity="0.8">
    <rect x="380" y="320" width="30" height="100" rx="4"/>
    <rect x="420" y="280" width="30" height="140" rx="4"/>
    <rect x="460" y="240" width="30" height="180" rx="4"/>
  </g>
</svg>
